<svg viewBox="0 0 220 200" xmlns="http://www.w3.org/2000/svg" fill="none">
  <rect x="90" y="35" width="40" height="120" fill="#e8a020" opacity="0.85" rx="1" />

  <rect x="30" y="155" width="160" height="12" fill="#e8a020" opacity="0.35" rx="1" />

  <g stroke="#8aa8c0" stroke-width="0.8">
    <line x1="76" y1="35" x2="76" y2="155"/>
    <line x1="72" y1="35" x2="80" y2="35"/>
    <line x1="72" y1="155" x2="80" y2="155"/>
    <text x="68" y="95" fill="#8aa8c0" font-family="DM Mono,monospace" font-size="9" text-anchor="middle" transform="rotate(-90 68 95)">h</text>

    <line x1="90" y1="24" x2="130" y2="24"/>
    <line x1="90" y1="20" x2="90" y2="28"/>
    <line x1="130" y1="20" x2="130" y2="28"/>
    <text x="110" y="16" fill="#8aa8c0" font-family="DM Mono,monospace" font-size="9" text-anchor="middle">t</text>

    <line x1="30" y1="176" x2="190" y2="176" stroke-dasharray="2,2"/>
    <line x1="30" y1="172" x2="30" y2="180"/>
    <line x1="190" y1="172" x2="190" y2="180"/>
    <text x="110" y="187" fill="var(--st-col)" font-family="DM Mono,monospace" font-size="8.5" text-anchor="middle">b_p</text>

    <line x1="198" y1="155" x2="198" y2="167"/>
    <line x1="195" y1="155" x2="201" y2="155"/>
    <line x1="195" y1="167" x2="201" y2="167"/>
    <text x="205" y="164" fill="var(--st-col)" font-family="DM Mono,monospace" font-size="8.5" text-anchor="start">t_p</text>
  </g>
</svg>
