<svg viewBox="0 0 220 200" xmlns="http://www.w3.org/2000/svg" fill="none">
  <rect x="35" y="25" width="150" height="18" fill="#e8a020" opacity="0.85" rx="1" />
  <rect x="97" y="43" width="26" height="110" fill="#e8a020" opacity="0.85" rx="1"/>
  <rect x="35" y="153" width="150" height="18" fill="#e8a020" opacity="0.85" rx="1"/>

  <g stroke="#8aa8c0" stroke-width="0.8">
    <line x1="35" y1="18" x2="185" y2="18"/>
    <line x1="35" y1="14" x2="35" y2="22"/>
    <line x1="185" y1="14" x2="185" y2="22"/>
    <text x="110" y="12" fill="#8aa8c0" font-family="DM Mono,monospace" font-size="9" text-anchor="middle">b_f</text>

    <line x1="188" y1="25" x2="188" y2="43"/>
    <line x1="184" y1="25" x2="192" y2="25"/>
    <line x1="184" y1="43" x2="192" y2="43"/>
    <text x="196" y="37" fill="#8aa8c0" font-family="DM Mono,monospace" font-size="9" text-anchor="start">t_f</text>

    <line x1="132" y1="43" x2="132" y2="153"/>
    <line x1="128" y1="43" x2="136" y2="43"/>
    <line x1="128" y1="153" x2="136" y2="153"/>
    <text x="140" y="101" fill="#8aa8c0" font-family="DM Mono,monospace" font-size="9" text-anchor="start">h_w</text>

    <line x1="97" y1="180" x2="123" y2="180"/>
    <line x1="97" y1="176" x2="97" y2="184"/>
    <line x1="123" y1="176" x2="123" y2="184"/>
    <text x="110" y="192" fill="#8aa8c0" font-family="DM Mono,monospace" font-size="9" text-anchor="middle">t_w</text>
  </g>

  <tspan id="svg_bp_val" display="none">200</tspan>
  <tspan id="svg_tp_val" display="none">12</tspan>
</svg>
