<svg viewBox="0 0 220 200" xmlns="http://www.w3.org/2000/svg" fill="none">
  <rect x="50" y="25" width="22" height="130" fill="#e8a020" opacity="0.85" rx="1" />
  <rect x="50" y="25" width="120" height="22" fill="#e8a020" opacity="0.85" rx="1"/>

  <rect x="30" y="155" width="160" height="12" fill="#e8a020" opacity="0.35" rx="1" />

  <g stroke="#8aa8c0" stroke-width="0.8">
    <line x1="50" y1="165" x2="72" y2="165"/>
    <line x1="50" y1="161" x2="50" y2="169"/>
    <line x1="72" y1="161" x2="72" y2="169"/>
    <text x="61" y="177" fill="#8aa8c0" font-family="DM Mono,monospace" font-size="9" text-anchor="middle">t_w</text>

    <line x1="40" y1="47" x2="40" y2="155"/>
    <line x1="36" y1="47" x2="44" y2="47"/>
    <line x1="36" y1="155" x2="44" y2="155"/>
    <text x="15" y="82" fill="#8aa8c0" font-family="DM Mono,monospace" font-size="9" text-anchor="middle" transform="rotate(-90 32 82)">h_w</text>

    <line x1="50" y1="18" x2="170" y2="18"/>
    <line x1="50" y1="13" x2="50" y2="23"/>
    <line x1="170" y1="13" x2="170" y2="23"/>
    <text x="110" y="13" fill="#8aa8c0" font-family="DM Mono,monospace" font-size="9" text-anchor="middle">b_f</text>

    <line x1="178" y1="25" x2="178" y2="47"/>
    <line x1="174" y1="25" x2="182" y2="25"/>
    <line x1="174" y1="47" x2="182" y2="47"/>
    <text x="186" y="39" fill="#8aa8c0" font-family="DM Mono,monospace" font-size="9" text-anchor="start">t_f</text>

    <line x1="30" y1="186" x2="190" y2="186" stroke-dasharray="2,2"/>
    <line x1="30" y1="182" x2="30" y2="190"/>
    <line x1="190" y1="182" x2="190" y2="190"/>
    <text x="110" y="197" fill="var(--st-col)" font-family="DM Mono,monospace" font-size="8.5" text-anchor="middle">b_p</text>

    <line x1="198" y1="155" x2="198" y2="167"/>
    <line x1="195" y1="155" x2="201" y2="155"/>
    <line x1="195" y1="167" x2="201" y2="167"/>
    <text x="205" y="164" fill="var(--st-col)" font-family="DM Mono,monospace" font-size="8.5" text-anchor="start">t_p</text>
  </g>
</svg>
